<svg viewBox="0 0 280 280" fill="none" xmlns="http://www.w3.org/2000/svg">
<g id="exp-minidiagram-1-windows" clip-path="url(#clip0_5885_26618)">
<rect width="280" height="280" fill="#F5F4DF"></rect>
<g id="Side view diagram">
<path id="Vector" d="M41.9364 257.971C47.0272 257.971 51.1541 254.543 51.1541 250.314C51.1541 246.085 47.0272 242.656 41.9364 242.656C36.8456 242.656 32.7188 246.085 32.7188 250.314C32.7188 254.543 36.8456 257.971 41.9364 257.971Z" fill="#F5F4DF" stroke="#AFB0A4" stroke-width="0.8" stroke-miterlimit="10"></path>
<g id="Vector_2">
<path d="M21.2817 242.458C21.6895 242.269 22.1005 242.083 22.521 241.897C30.1045 238.513 39.5533 235.495 44.0867 235.055C44.1253 235.052 44.1606 235.032 44.1863 235.003C47.4001 231.404 61.6841 226.82 73.7464 222.434C83.4906 218.472 100.886 218.353 104.844 218.841L67.5884 207.219H48.5687C51.6028 211.945 53.4425 215.791 53.6672 218.446C53.7635 219.58 53.2562 220.671 52.3252 221.326C46.1897 225.622 21.5386 231.215 20.3603 237.286C20.1323 238.914 20.2351 240.461 20.6621 241.932C20.7167 242.118 21.1469 242.243 21.2625 242.42C21.2625 242.42 21.2785 242.446 21.2817 242.458C21.346 242.648 20.9896 242.898 21.0666 243.085C22.6174 246.822 26.3353 250.071 32.0277 252.996C32.1272 253.047 32.2331 253.086 32.3423 253.105C40.4298 254.704 46.9474 254.713 51.7151 252.948C54.9932 251.451 57.7768 249.57 60.021 247.271C60.1879 247.101 60.3228 246.899 60.4191 246.68C61.5075 244.163 61.7836 242.147 60.8461 240.872C59.1541 238.477 47.0276 239.257 44.122 236.535C44 236.416 43.9134 236.275 43.862 236.121C43.8395 236.053 43.7849 236.002 43.7143 235.999C39.6079 235.835 31.0292 238.4 22.5307 241.897C22.5307 241.897 22.5243 241.9 22.521 241.9C22.1005 242.073 21.6799 242.247 21.2625 242.423C21.2336 242.436 21.2015 242.449 21.1726 242.462" fill="#F5F4DF"></path>
<path d="M21.2817 242.458C21.6895 242.269 22.1005 242.083 22.521 241.897C30.1045 238.513 39.5533 235.495 44.0867 235.055C44.1253 235.052 44.1606 235.032 44.1863 235.003C47.4001 231.404 61.6841 226.82 73.7464 222.434C83.4906 218.472 100.886 218.353 104.844 218.841L67.5884 207.219H48.5687C51.6028 211.945 53.4425 215.791 53.6672 218.446C53.7635 219.58 53.2562 220.671 52.3252 221.326C46.1897 225.622 21.5386 231.215 20.3603 237.286C20.1323 238.914 20.2351 240.461 20.6621 241.932C20.7167 242.118 21.1469 242.243 21.2625 242.42C21.2625 242.42 21.2785 242.446 21.2817 242.458ZM21.2817 242.458C21.346 242.648 20.9896 242.898 21.0666 243.085C22.6174 246.822 26.3353 250.071 32.0277 252.996C32.1272 253.047 32.2331 253.086 32.3423 253.105C40.4298 254.704 46.9474 254.713 51.7151 252.948C54.9932 251.451 57.7768 249.57 60.021 247.271C60.1879 247.101 60.3228 246.899 60.4191 246.68C61.5075 244.163 61.7836 242.147 60.8461 240.872C59.1541 238.477 47.0276 239.257 44.122 236.535C44 236.416 43.9134 236.275 43.862 236.121C43.8395 236.053 43.7849 236.002 43.7143 235.999C39.6079 235.835 31.0292 238.4 22.5307 241.897C22.5307 241.897 22.5243 241.9 22.521 241.9C22.1005 242.073 21.6799 242.247 21.2625 242.423C21.2336 242.436 21.2015 242.449 21.1726 242.462" stroke="#AFB0A4" stroke-width="0.8" stroke-miterlimit="10"></path>
</g>
<path id="Vector_3" d="M67.4297 93.0586L67.7411 94.3365L68.685 94.0507L70.6628 97.088V99.2038L73.989 99.6661L73.6743 95.8551L73.0418 92.0441L69.889 91.3281L67.77 92.5867L67.4297 93.0586Z" fill="#F5F4DF" stroke="#AFB0A4" stroke-width="0.8" stroke-miterlimit="10"></path>
<path id="Vector_4" d="M67.2444 105.016C66.5316 104.884 65.8638 105.057 65.3405 105.427C65.0676 105.619 64.7273 105.69 64.3998 105.616L43.8487 101.086L41.9062 103.606L64.0145 108.4C64.2971 108.461 64.5571 108.615 64.7209 108.856C65.1671 109.511 65.9184 109.941 66.7724 109.941C68.3071 109.941 69.5175 108.551 69.2093 106.958C69.0199 105.979 68.2236 105.196 67.2444 105.013V105.016Z" fill="#F5F4DF" stroke="#AFB0A4" stroke-width="0.8" stroke-miterlimit="10"></path>
<path id="Vector_5" d="M65.9726 106.322L70.8078 101.82L72.7502 107.368L67.3468 108.807C66.6918 108.98 65.8281 108.819 65.5071 108.225C65.1892 107.638 65.4846 106.774 65.9726 106.322Z" fill="#F5F4DF" stroke="#AFB0A4" stroke-width="0.8" stroke-miterlimit="10"></path>
<path id="Vector_6" d="M72.0635 98.1797L71.0714 99.2745L70.4646 99.1653L70.1596 99.6405L70.3426 100.19C69.9477 100.864 69.7422 101.638 69.6908 102.485L69.0391 102.858V103.448L69.6651 103.683C69.6876 104.447 69.9348 105.163 70.4228 105.824L70.166 106.498L70.3715 106.868H71.1035C71.6782 107.619 72.3524 108.139 73.1133 108.46V109.035L73.55 109.256L74.1054 108.749C74.7283 108.951 75.3447 108.99 75.9579 108.906L72.0699 98.1797H72.0635Z" fill="#F5F4DF" stroke="#AFB0A4" stroke-width="0.8" stroke-miterlimit="10"></path>
<path id="Vector_7" d="M72.4026 88.9281C71.9949 91.1981 71.4395 93.1726 70.6368 94.6623C70.5373 94.8485 70.5148 95.0668 70.579 95.2659C74.1813 106.041 78.1657 115.384 82.6638 122.81C85.3254 126.987 118.225 125.831 151.23 124.659C141.835 126.765 132.971 129.08 124.909 131.716C124.732 131.774 124.652 131.973 124.732 132.137L124.967 132.191C93.0597 142.565 64.5655 158.579 39.4586 180.196L38.3124 180.614C38.1936 180.655 38.0876 180.723 37.9977 180.809C33.7405 184.9 30.6422 188.566 29.3034 191.587C28.4365 193.546 28.7383 195.861 30.1927 197.434C43.1251 212.498 130.605 229.402 219.166 219.048C287.17 211.789 426.286 157.118 471.999 151.05L410.936 61.2719L409.665 61.6957L409.241 60.6362L379.283 54.1797L379.177 64.871L383.318 67.9757C383.431 68.0592 383.37 68.2357 383.232 68.2357L361.772 68.2069L391.669 132.724C392.266 134.853 390.96 136.095 388.176 136.641C338.906 128.021 291.572 120.11 261.254 118.434C257.276 115.091 253.192 112.186 248.973 109.858C220.136 98.7141 195.09 94.8678 170.535 91.9686C146.866 89.2941 122.45 88.6071 97.3876 89.6409C88.2599 89.3102 79.755 89.002 72.6145 88.7451C72.5086 88.7419 72.4187 88.8158 72.3994 88.9217L72.4026 88.9281Z" fill="#F5F4DF" stroke="#AFB0A4" stroke-width="0.8" stroke-miterlimit="10"></path>
<path id="Vector_8" d="M195.243 117.233C195.461 120.379 190.591 123.237 181.964 123.831C173.337 124.425 164.216 122.534 163.997 119.387C163.779 116.241 170.598 113.207 179.228 112.61C187.855 112.016 195.028 114.083 195.243 117.233Z" fill="#F5F4DF" stroke="#AFB0A4" stroke-width="0.8" stroke-miterlimit="10"></path>
<path id="Vector_9" d="M72.7068 88.6523C71.9267 86.2668 70.7451 84.7642 69.1976 84.0547H40.2893C40.2475 84.0547 40.209 84.0804 40.1962 84.1221C38.6262 89.2463 37.3516 106.908 37.3516 106.908C37.3516 106.908 61.6976 93.7186 69.1591 92.7009C72.8706 93.2274 75.6253 92.1326 77.0733 88.8128L72.7068 88.6555V88.6523Z" fill="#F5F4DF" stroke="#AFB0A4" stroke-width="0.8" stroke-miterlimit="10"></path>
<path id="Vector_10" d="M59.8113 66.9456C76.0217 64.6275 141.441 67.668 149.985 68.6569C152.829 69.254 155.25 70.7598 157.273 73.1068C157.469 73.3315 157.244 73.675 156.958 73.5884L153.455 72.5257C151.696 71.9895 149.847 71.8193 148.016 72.0216C121.327 74.9625 89.898 79.0592 78.2948 78.6579C71.7676 78.9437 65.1698 76.9627 58.2734 74.1759L59.8081 66.952L59.8113 66.9456Z" fill="#F5F4DF" stroke="#AFB0A4" stroke-width="0.8" stroke-miterlimit="10"></path>
<path id="Vector_11" d="M-22.3397 70.0877L-24.6385 71.176C-24.9371 71.937 -25.2196 72.3447 -24.7156 73.0703C-24.3303 73.6257 -23.701 73.7124 -23.0621 73.4845L-18.6828 71.9145C5.15598 74.7591 35.7082 78.8558 43.1632 78.6471L42.0973 69.5547L-22.3365 70.0877H-22.3397Z" fill="#F5F4DF" stroke="#AFB0A4" stroke-width="0.8" stroke-miterlimit="10"></path>
<path id="Vector_12" d="M202.46 54.2306C232.659 53.8389 275.337 53.8517 285.961 56.2051C286.086 56.234 286.208 56.2693 286.327 56.3143C289.008 57.3031 291.291 58.642 292.925 60.5491C293.095 60.7481 292.906 61.0467 292.652 60.9857C290.395 59.6469 288.048 58.9983 285.618 59.0144C285.618 59.0144 284.012 59.0048 283.444 59.085C252.006 63.4097 219.017 68.2096 208.993 65.9333L202.453 54.2306H202.46Z" fill="#F5F4DF" stroke="#AFB0A4" stroke-width="0.8" stroke-miterlimit="10"></path>
<path id="Vector_13" d="M173.686 65.4727C168.055 68.6673 145.828 66.5033 111.933 60.5669L106.241 62.3263C106.19 62.3424 106.154 62.2717 106.203 62.2396L111.818 58.5859L174.325 60.5637L173.686 65.4695V65.4727Z" fill="#F5F4DF" stroke="#AFB0A4" stroke-width="0.8" stroke-miterlimit="10"></path>
<path id="Vector_14" d="M175.933 69.9617H203.916C204.568 50.9099 200.038 38.5298 190.788 32.2273C190.271 31.8742 189.587 31.8838 189.08 32.2498C179.85 38.8797 175.21 51.1346 175.933 69.9617Z" fill="#F5F4DF" stroke="#AFB0A4" stroke-width="0.8" stroke-miterlimit="10"></path>
<path id="Vector_15" d="M175.68 65.9375H203.798" stroke="#AFB0A4" stroke-width="0.8" stroke-miterlimit="10"></path>
<path id="Vector_16" d="M175.828 61.1719H203.645" stroke="#AFB0A4" stroke-width="0.8" stroke-miterlimit="10"></path>
<path id="Vector_17" d="M183.588 65.524C177.722 68.7924 147.889 63.7453 118.621 60.4608C118.271 60.4223 117.915 60.4255 117.568 60.4897C115.68 60.8237 113.86 61.3887 112.091 62.1304C111.413 62.4161 110.636 62.0276 110.46 61.3149C110.155 60.0659 110.97 58.8395 113.4 57.6451C113.991 57.353 114.627 57.1636 115.282 57.0801C122.002 56.2228 156.805 54.2226 178.226 54.5919C180.547 56.9773 182.38 60.4865 183.877 64.7534C183.979 65.0456 183.861 65.3795 183.588 65.5304V65.524Z" fill="#F5F4DF" stroke="#AFB0A4" stroke-width="0.8" stroke-miterlimit="10"></path>
<path id="Vector_18" d="M181.188 69.9609H180.109V72.0735H181.188V69.9609Z" fill="#F5F4DF" stroke="#AFB0A4" stroke-width="0.8" stroke-miterlimit="10"></path>
<path id="Vector_19" d="M200.508 69.9609H199.43V72.0767H200.508V69.9609Z" fill="#F5F4DF" stroke="#AFB0A4" stroke-width="0.8" stroke-miterlimit="10"></path>
<path id="Vector_20" d="M183.42 72.0726L185.302 69.9375H187.065L187.989 72.0726H187.17C186.817 71.5749 186.432 71.2506 185.928 71.2057C185.324 71.1736 184.82 71.5235 184.416 72.0726H183.414H183.42Z" fill="#F5F4DF" stroke="#AFB0A4" stroke-width="0.8" stroke-miterlimit="10"></path>
<path id="Vector_21" d="M197.256 72.0726L195.375 69.9375H193.612L192.688 72.0726H193.506C193.859 71.5749 194.245 71.2506 194.749 71.2057C195.352 71.1736 195.856 71.5235 196.261 72.0726H197.263H197.256Z" fill="#F5F4DF" stroke="#AFB0A4" stroke-width="0.8" stroke-miterlimit="10"></path>
<path id="Vector_22" d="M40.589 81.9218H68.5727C69.2245 62.809 64.6654 50.4129 55.3578 44.1297C54.8923 43.8151 54.2791 43.8215 53.82 44.149C44.5349 50.7628 39.8634 63.037 40.589 81.9218Z" fill="#F5F4DF" stroke="#AFB0A4" stroke-width="0.8" stroke-miterlimit="10"></path>
<path id="Vector_23" d="M40.5156 77.9141H68.6342" stroke="#AFB0A4" stroke-width="0.8" stroke-miterlimit="10"></path>
<path id="Vector_24" d="M40.6719 73.1484H68.4886" stroke="#AFB0A4" stroke-width="0.8" stroke-miterlimit="10"></path>
<path id="Vector_25" d="M46.0319 81.9375H44.9531V84.0501H46.0319V81.9375Z" fill="#F5F4DF" stroke="#AFB0A4" stroke-width="0.8" stroke-miterlimit="10"></path>
<path id="Vector_26" d="M65.3444 81.9375H64.2656V84.0533H65.3444V81.9375Z" fill="#F5F4DF" stroke="#AFB0A4" stroke-width="0.8" stroke-miterlimit="10"></path>
<path id="Vector_27" d="M48.2642 84.0569L50.1457 81.9219H51.9083L52.8329 84.0569H52.0142C51.6611 83.5593 51.2758 83.235 50.7717 83.1901C50.1681 83.158 49.6641 83.5079 49.2595 84.0569H48.2578H48.2642Z" fill="#F5F4DF" stroke="#AFB0A4" stroke-width="0.8" stroke-miterlimit="10"></path>
<path id="Vector_28" d="M62.0921 84.0569L60.2107 81.9219H58.4481L57.5234 84.0569H58.3421C58.6953 83.5593 59.0806 83.235 59.5847 83.1901C60.1883 83.158 60.6923 83.5079 61.0969 84.0569H62.0986H62.0921Z" fill="#F5F4DF" stroke="#AFB0A4" stroke-width="0.8" stroke-miterlimit="10"></path>
<path id="Vector_29" d="M42.25 72.7308H44.6226C44.9212 72.7308 45.1717 72.5093 45.2102 72.2139C45.3547 71.0099 45.6211 68.0658 44.8667 67.1797L42.25 72.7308Z" fill="#F5F4DF" stroke="#AFB0A4" stroke-width="0.8" stroke-miterlimit="10"></path>
<g id="Vector_30">
<path d="M44.2687 70.7857C43.3312 72.879 41.4755 74.9852 38.724 77.1042C38.5345 77.2518 38.3226 77.3674 38.0947 77.4445C28.2477 80.7675 3.01554 76.6611 -23.7738 71.8034C-24.1848 71.7296 -24.6086 71.7713 -24.9938 71.9286L-28.9236 73.5243C-28.9814 73.5468 -29.0296 73.4697 -28.9782 73.428C-26.5221 71.4759 -24.005 69.8674 -21.3562 68.946C-19.4684 67.4948 36.4252 65.4175 44.166 66.6793C44.6283 66.7564 44.9815 67.1577 44.9815 67.6264C45.0457 68.2814 44.8691 69.0905 44.6026 69.9541" fill="#F5F4DF"></path>
<path d="M44.2687 70.7857C43.3312 72.879 41.4755 74.9852 38.724 77.1042C38.5345 77.2518 38.3226 77.3674 38.0947 77.4445C28.2477 80.7675 3.01554 76.6611 -23.7738 71.8034C-24.1848 71.7296 -24.6086 71.7713 -24.9938 71.9286L-28.9236 73.5243C-28.9814 73.5468 -29.0296 73.4697 -28.9782 73.428C-26.5221 71.4759 -24.005 69.8674 -21.3562 68.946C-19.4684 67.4948 36.4252 65.4175 44.166 66.6793C44.6283 66.7564 44.9815 67.1577 44.9815 67.6264C45.0457 68.2814 44.8691 69.0905 44.6026 69.9541" stroke="#AFB0A4" stroke-width="0.8" stroke-miterlimit="10"></path>
</g>
<path id="Vector_31" d="M56.5464 67.5269C54.4306 69.9509 52.3758 72.9272 50.3788 76.4364C50.2279 76.6996 50.1829 77.0143 50.2472 77.3097C50.4045 78.0288 51.1558 78.4462 51.8525 78.2054C58.9094 75.7686 66.4126 73.7363 74.102 71.8677C74.9496 71.6237 75.855 71.7071 76.6448 72.102L79.5793 73.5693C79.7784 73.6688 80.0095 73.7041 80.2279 73.6528C82.9151 73.0524 84.1801 71.5691 84.2957 69.3762C84.3246 68.8433 84.01 68.3521 83.5091 68.1658C80.0095 66.872 66.2842 65.5973 58.232 66.6247C57.577 66.7082 56.983 67.0357 56.5496 67.5301L56.5464 67.5269Z" fill="#F5F4DF" stroke="#AFB0A4" stroke-width="0.8" stroke-miterlimit="10"></path>
<path id="Vector_32" d="M72.7044 88.6484L71.4844 92.7998" stroke="#AFB0A4" stroke-width="0.8" stroke-miterlimit="10"></path>
<path id="Vector_33" d="M43.8359 103.5L63.0707 107.777C63.6101 107.895 64.1431 107.549 64.2554 107.009C64.3614 106.48 64.0243 105.963 63.4977 105.847L46.4975 102.148" stroke="#AFB0A4" stroke-width="0.8" stroke-miterlimit="10"></path>
<path id="Vector_34" d="M97.4688 89.5469V95.1301C97.4688 95.5925 97.8412 95.9649 98.3035 95.9649H102.94C130.458 94.1092 150.222 94.9535 167.983 96.4946" stroke="#AFB0A4" stroke-width="0.8" stroke-miterlimit="10"></path>
<path id="Vector_35" d="M170.616 91.875V92.1961C170.616 92.6712 170.414 93.1239 170.058 93.4418C169.005 94.3761 168.115 95.9846 167.325 98.0233C167.162 98.4439 167.078 98.8934 167.078 99.3461V115.643" stroke="#AFB0A4" stroke-width="0.8" stroke-miterlimit="10"></path>
<path id="Vector_36" d="M97.8047 125.475V120.187C97.8047 119.564 98.3312 119.073 98.9541 119.115C119.984 120.585 141.7 120.473 163.991 119.031" stroke="#AFB0A4" stroke-width="0.8" stroke-miterlimit="10"></path>
<path id="Vector_37" d="M102.945 95.9688V119.381" stroke="#AFB0A4" stroke-width="0.8" stroke-miterlimit="10"></path>
<path id="Vector_38" d="M151.312 124.562L169.436 122.922" stroke="#AFB0A4" stroke-width="0.8" stroke-miterlimit="10"></path>
<path id="Vector_39" d="M175.256 106.672L174.122 107.503C173.58 107.902 173.101 108.383 172.706 108.926L168.25 115.055" stroke="#AFB0A4" stroke-width="0.8" stroke-miterlimit="10"></path>
<path id="Vector_40" d="M172.112 109.75L167.078 109.352" stroke="#AFB0A4" stroke-width="0.8" stroke-miterlimit="10"></path>
<g id="Vector_41">
<path d="M221.3 100.805C220.893 101.18 220.177 101.553 219.156 101.928C218.953 102.002 218.735 102.034 218.52 102.028L208.984 101.707" fill="#F5F4DF"></path>
<path d="M221.3 100.805C220.893 101.18 220.177 101.553 219.156 101.928C218.953 102.002 218.735 102.034 218.52 102.028L208.984 101.707" stroke="#AFB0A4" stroke-width="0.8" stroke-miterlimit="10"></path>
</g>
<path id="Vector_42" d="M125.053 132.094C125.053 132.094 130.376 132.418 130.511 134.646C130.568 135.574 129.968 136.605 129.252 137.491C128.286 138.688 126.873 139.879 125.473 140.515C99.7915 152.231 78.0685 167.545 71.1849 169.443L50.8906 176.545" stroke="#AFB0A4" stroke-width="0.8" stroke-miterlimit="10"></path>
<path id="Vector_43" d="M39.5391 180.095L50.4327 176.287C50.5868 176.233 50.7505 176.348 50.7537 176.512L51.0266 208.034" stroke="#AFB0A4" stroke-width="0.8" stroke-miterlimit="10"></path>
<path id="Vector_44" d="M42.2165 188.182C42.2646 188.535 42.5953 188.779 42.9485 188.718L50.1178 187.456L50.2045 187.623C50.3875 187.973 50.7759 188.156 51.1612 188.079L54.5067 187.405C55.1328 187.28 55.5437 186.673 55.4281 186.044C55.3125 185.421 54.725 185.003 54.0989 185.1L50.7182 185.617C50.3329 185.674 50.0311 185.979 49.9765 186.365L42.743 187.479C42.4059 187.53 42.1715 187.845 42.2165 188.182Z" fill="#F5F4DF" stroke="#AFB0A4" stroke-width="0.8" stroke-miterlimit="10"></path>
<path id="Vector_45" d="M42.2766 196.914C42.2766 197.273 42.5784 197.556 42.9348 197.537L50.4894 197.119L50.7173 197.578C50.8586 197.71 51.048 197.781 51.2439 197.774L54.3293 197.681C55.0196 197.662 55.5686 197.094 55.5686 196.403C55.5686 195.684 54.9778 195.106 54.2587 195.125L51.2246 195.203C51.0288 195.209 50.8393 195.289 50.7045 195.434L50.4669 195.918L42.8674 196.294C42.5367 196.31 42.2734 196.583 42.2734 196.917L42.2766 196.914Z" fill="#F5F4DF" stroke="#AFB0A4" stroke-width="0.8" stroke-miterlimit="10"></path>
<path id="Vector_46" d="M51.0234 203.97C96.6173 219.445 145.393 222.846 196.252 218.338C250.467 216.216 324.895 190.913 354.802 181.117" stroke="#AFB0A4" stroke-width="0.8" stroke-miterlimit="10"></path>
<path id="Vector_47" d="M129.031 137.751C144.673 133.413 152.467 132.358 157.765 131.715C162.073 131.193 168.602 130.556 171.089 129.468C173.657 128.344 178.152 125.776 178.699 123.945" stroke="#AFB0A4" stroke-width="0.8" stroke-miterlimit="10"></path>
<path id="Vector_48" d="M52.6641 208.555L52.693 208.757C52.7475 209.161 53.0397 209.495 53.4346 209.601L62.511 212.07C62.8353 212.157 63.182 212.08 63.4389 211.862L63.7278 211.614" stroke="#AFB0A4" stroke-width="0.8" stroke-miterlimit="10"></path>
<path id="Vector_49" d="M50.5156 210.422C51.5591 210.72 54.4261 215.039 56.9047 217.858C57.4505 218.477 58.2339 218.827 59.0591 218.808C64.7129 218.676 70.7007 219.508 73.7476 222.433" stroke="#AFB0A4" stroke-width="0.8" stroke-miterlimit="10"></path>
<path id="Vector_50" d="M208.203 109.383H210.984C214.756 109.665 222.478 112.648 229.737 115.316" stroke="#AFB0A4" stroke-width="0.8" stroke-miterlimit="10"></path>
<path id="Vector_51" d="M207.547 113.75C212.36 114.777 216.874 116.142 220.858 118.113L230.307 127.135" stroke="#AFB0A4" stroke-width="0.8" stroke-miterlimit="10"></path>
<path id="Vector_52" d="M220.859 118.115L245.687 110.342C246.48 110.095 247.308 109.989 248.14 110.034L249.598 110.111" stroke="#AFB0A4" stroke-width="0.8" stroke-miterlimit="10"></path>
<path id="Vector_53" d="M207.805 112.141C211.58 112.658 218.971 115.804 223.813 117.191" stroke="#AFB0A4" stroke-width="0.8" stroke-miterlimit="10"></path>
<path id="Vector_54" d="M221.897 119.109L206.023 121.594" stroke="#AFB0A4" stroke-width="0.8" stroke-miterlimit="10"></path>
<path id="Vector_55" d="M204.117 129.467L231.019 127.03C236.506 126.221 258.094 120.195 266.997 122.577C281.581 125.354 300.315 129.467 314.924 131.391C336.693 134.257 342.856 134.869 354.735 136.367" stroke="#AFB0A4" stroke-width="0.8" stroke-miterlimit="10"></path>
<path id="Vector_56" d="M261.383 118.406L266.911 122.548" stroke="#AFB0A4" stroke-width="0.8" stroke-miterlimit="10"></path>
<path id="Vector_57" d="M235.306 121.12C241.121 118.468 246.788 117.863 253.139 118.727C253.206 118.736 253.271 118.762 253.322 118.804C253.614 119.041 253.874 119.353 254.115 119.706C254.25 119.902 254.157 120.175 253.935 120.252C248.805 122.03 242.775 122.904 235.84 122.878C235.766 122.878 235.692 122.855 235.631 122.814C235.246 122.547 234.944 122.21 234.713 121.812C234.604 121.629 234.684 121.388 234.88 121.298L235.306 121.12Z" fill="#F5F4DF" stroke="#AFB0A4" stroke-width="0.8" stroke-miterlimit="10"></path>
<path id="Vector_58" d="M191.69 138.177L182.537 134.607C160.361 134.039 150.363 138.119 145.249 145.697C134.801 163.082 127.224 204.377 135.045 210.901C140.536 217.868 172.648 216.609 181.021 209.495C196.84 198.53 203.499 148.162 196.885 144.878L191.687 138.177H191.69Z" stroke="#AFB0A4" stroke-width="0.8" stroke-miterlimit="10"></path>
<path id="Vector_59" d="M167.18 197.275C167.18 197.295 167.183 197.311 167.186 197.33C167.324 198.357 168.271 199.083 169.305 198.983C172.294 198.688 175.058 198.338 177.473 197.901C177.723 197.857 177.938 197.709 178.086 197.5C178.414 197.031 178.654 196.524 178.821 195.978C179.004 195.378 178.552 194.765 177.926 194.762C174.792 194.736 171.771 194.842 168.91 195.131C167.838 195.24 167.042 196.209 167.18 197.275Z" stroke="#AFB0A4" stroke-width="0.8" stroke-miterlimit="10"></path>
<g id="Vector_60">
<path d="M168.445 195.234C169.396 195.453 170.298 195.848 171.158 196.374C171.473 196.567 171.839 196.666 172.211 196.666C174.642 196.663 176.873 196.57 178.713 196.304" fill="#F5F4DF"></path>
<path d="M168.445 195.234C169.396 195.453 170.298 195.848 171.158 196.374C171.473 196.567 171.839 196.666 172.211 196.666C174.642 196.663 176.873 196.57 178.713 196.304" stroke="#AFB0A4" stroke-width="0.8" stroke-miterlimit="10"></path>
</g>
<path id="Vector_61" d="M239.359 190.382C239.363 190.401 239.366 190.417 239.372 190.437C239.587 191.451 240.589 192.103 241.61 191.92C244.567 191.397 247.296 190.835 249.672 190.212C249.919 190.148 250.121 189.984 250.253 189.766C250.545 189.274 250.744 188.748 250.869 188.192C251.008 187.579 250.507 187.004 249.881 187.049C246.753 187.268 243.752 187.602 240.92 188.109C239.86 188.298 239.141 189.329 239.359 190.382Z" stroke="#AFB0A4" stroke-width="0.8" stroke-miterlimit="10"></path>
<g id="Vector_62">
<path d="M240.453 188.25C241.42 188.394 242.347 188.719 243.246 189.178C243.577 189.348 243.949 189.415 244.319 189.387C246.743 189.194 248.961 188.931 250.775 188.523" fill="#F5F4DF"></path>
<path d="M240.453 188.25C241.42 188.394 242.347 188.719 243.246 189.178C243.577 189.348 243.949 189.415 244.319 189.387C246.743 189.194 248.961 188.931 250.775 188.523" stroke="#AFB0A4" stroke-width="0.8" stroke-miterlimit="10"></path>
</g>
<path id="Vector_63" d="M224.596 260.492C229.141 260.492 232.825 257.844 232.825 254.578C232.825 251.312 229.141 248.664 224.596 248.664C220.051 248.664 216.367 251.312 216.367 254.578C216.367 257.844 220.051 260.492 224.596 260.492Z" fill="#F5F4DF" stroke="#AFB0A4" stroke-width="0.8" stroke-miterlimit="10"></path>
<path id="Vector_64" d="M216.258 213.339C216.117 213.034 215.831 212.819 215.497 212.771C213.6 212.877 210.531 212.277 207.249 211.554C192.317 209.092 180.306 209.262 174.922 215.4C174.488 215.895 174.681 216.685 175.297 216.919C177.596 217.789 183.751 218.306 189.273 222.987L213.847 245.028L225.987 241.198C217.093 232.895 204.845 222.586 206.068 220.335C207.365 216.829 211.336 215.018 216.085 213.699C216.239 213.657 216.319 213.487 216.252 213.342L216.258 213.339Z" fill="#F5F4DF" stroke="#AFB0A4" stroke-width="0.8" stroke-miterlimit="10"></path>
<path id="Vector_65" d="M190.97 224.498C189.679 222.594 187.676 220.437 188.693 217.916L188.44 217.64C188.186 217.367 188.196 216.943 188.459 216.68L187.92 216.073C187.704 215.833 187.762 215.451 188.042 215.287C193.439 212.108 199.693 216.183 205.995 220.693" stroke="#AFB0A4" stroke-width="0.8" stroke-miterlimit="10"></path>
<path id="Vector_66" d="M210.054 250.857C211.294 253.23 213.377 254.479 215.959 255.07C221.404 257.827 227.411 257.978 233.768 256.508C238.07 255.07 241.721 252.591 244.764 249.136C244.899 248.985 245.008 248.812 245.085 248.623C245.695 247.107 245.875 245.723 245.503 244.507C245.233 243.62 244.498 242.953 243.602 242.715C231.318 239.453 214.283 237.594 209.99 246.831C209.396 248.109 209.403 249.602 210.054 250.854V250.857Z" fill="#F5F4DF" stroke="#AFB0A4" stroke-width="0.8" stroke-miterlimit="10"></path>
<path id="Vector_67" d="M187.596 141.129C179.778 138.243 165.5 138.647 156.722 142.982C154.292 144.182 152.305 146.115 150.94 148.456C144.259 159.908 136.63 182.122 142.583 189.365C148.044 195.552 176.538 192.656 183.515 186.469C192.614 179.313 192.293 162.55 194.174 148.234L187.592 141.126L187.596 141.129Z" stroke="#0E1620" stroke-miterlimit="10"></path>
<path id="Vector_68" d="M204.683 72.0781H176.278C176.07 72.0781 175.88 72.1969 175.794 72.3896C169.183 87.2194 177.068 122.003 189.018 162.389C189.063 162.54 189.249 162.592 189.362 162.483L190.103 161.786C190.672 161.253 191.558 161.269 192.107 161.818L192.778 162.489C192.884 162.595 193.067 162.556 193.121 162.415C208.609 123.014 213.823 91.817 204.68 72.0781H204.683Z" fill="#F5F4DF" stroke="#AFB0A4" stroke-width="0.8" stroke-miterlimit="10"></path>
<path id="Vector_69" d="M190.277 122.476C192.687 122.476 194.641 120.523 194.641 118.113C194.641 115.703 192.687 113.75 190.277 113.75C187.868 113.75 185.914 115.703 185.914 118.113C185.914 120.523 187.868 122.476 190.277 122.476Z" stroke="#AFB0A4" stroke-width="0.8" stroke-miterlimit="10"></path>
<path id="Vector_70" d="M193.833 118.093C193.833 118.485 193.544 118.818 193.155 118.873L188.574 119.525C187.707 119.647 186.923 118.973 186.93 118.096C186.93 118.086 186.93 118.074 186.93 118.064C186.936 117.187 187.713 116.516 188.58 116.645L193.162 117.316C193.55 117.374 193.836 117.704 193.836 118.096L193.833 118.093Z" stroke="#AFB0A4" stroke-width="0.8" stroke-miterlimit="10"></path>
<path id="Vector_71" d="M219.727 140.483C208.079 149.123 203.369 188.819 203.32 201.154C203.298 206.898 208.342 210.991 212.93 211.055C222.151 211.187 240.169 209.437 249.406 204.657C254.642 201.947 258.697 197.413 260.922 191.952C267.308 176.265 273.893 150.484 263.118 140.483C252.635 131.843 229.92 131.939 219.727 140.483Z" stroke="#AFB0A4" stroke-width="0.8" stroke-miterlimit="10"></path>
<path id="Vector_72" d="M220.665 148.452C215.246 158.193 212.391 169.61 213.605 179.033C214.099 182.876 217.121 185.907 220.967 186.382C230.743 187.59 241.274 185.965 250.887 181.891C253.333 180.854 255.349 179.011 256.601 176.67C260.772 168.868 263.822 159.182 262.875 150.876C262.397 146.69 259.732 143.09 255.882 141.379C249.477 138.531 240.478 137.758 233.514 139.103C228.056 140.156 223.365 143.595 220.662 148.452H220.665Z" stroke="#0E1620" stroke-miterlimit="10"></path>
<path id="Vector_73" d="M290.495 140.933H319.104C325.692 140.933 330.618 146.982 329.282 153.432L323.933 179.287C322.935 184.112 318.684 187.573 313.755 187.573H285.968C279.511 187.573 274.615 181.746 275.729 175.386L280.256 149.531C281.126 144.558 285.444 140.93 290.495 140.93V140.933Z" stroke="#AFB0A4" stroke-width="0.8" stroke-miterlimit="10"></path>
<path id="Vector_74" d="M68.6848 94.0537L68.2578 92.8594" stroke="#AFB0A4" stroke-width="0.8" stroke-miterlimit="10"></path>
<path id="Vector_75" d="M70.6641 97.0892L70.7186 95.6797" stroke="#AFB0A4" stroke-width="0.8" stroke-miterlimit="10"></path>
<g id="Vector_76">
<path d="M68.4766 93.4531C69.2664 93.9861 70.0594 94.2494 70.8492 94.2397Z" fill="#F5F4DF"></path>
<path d="M68.4766 93.4531C69.2664 93.9861 70.0594 94.2494 70.8492 94.2397" stroke="#AFB0A4" stroke-width="0.8" stroke-miterlimit="10"></path>
</g>
<g id="Vector_77">
<path d="M193.561 60.3436H192.162C191.513 60.3436 190.954 59.878 190.839 59.2391C190.563 57.743 190.418 56.3528 190.733 55.3158C190.929 54.892 191.067 54.7378 191.352 54.6062C193.632 53.5595 198.127 53.7554 204.33 54.908C205.656 55.1552 206.995 55.3318 208.343 55.3864C214.578 55.64 219.526 57.0591 223.732 59.1556C223.998 59.2873 224.139 59.5859 224.081 59.8748L223.931 60.6454C223.87 60.9536 223.597 61.1783 223.282 61.1783H222.152C216.96 65.2173 211.682 67.4326 206.263 66.585C202.731 66.7712 197.697 63.6666 192.004 59.1235" fill="#F5F4DF"></path>
<path d="M193.561 60.3436H192.162C191.513 60.3436 190.954 59.878 190.839 59.2391C190.563 57.743 190.418 56.3528 190.733 55.3158C190.929 54.892 191.067 54.7378 191.352 54.6062C193.632 53.5595 198.127 53.7554 204.33 54.908C205.656 55.1552 206.995 55.3318 208.343 55.3864C214.578 55.64 219.526 57.0591 223.732 59.1556C223.998 59.2873 224.139 59.5859 224.081 59.8748L223.931 60.6454C223.87 60.9536 223.597 61.1783 223.282 61.1783H222.152C216.96 65.2173 211.682 67.4326 206.263 66.585C202.731 66.7712 197.697 63.6666 192.004 59.1235" stroke="#AFB0A4" stroke-width="0.8" stroke-miterlimit="10"></path>
</g>
<path id="Vector_78" d="M131.116 143.753C130.47 143.731 129.825 143.827 129.205 144.02C109.893 150.03 73.8414 170.032 78.3748 190.818C79.8485 200.78 95.8341 210.656 113.483 208.964C116.183 208.704 118.633 207.208 120.036 204.886C127.272 192.93 127.333 176.726 136.108 151.513C136.651 149.956 136.635 148.232 135.957 146.726C135.093 144.806 133.462 143.837 131.116 143.753Z" stroke="#0E1620" stroke-miterlimit="10"></path>
</g>
</g>
<defs>
<clipPath id="clip0_5885_26618">
<rect width="280" height="280" fill="white"></rect>
</clipPath>
</defs>
</svg>
